# xmcd
#
# Track frame offsets: 
#        150
#        9825
#        23036
#        35799
#        48289
#        58332
#        69606
#        79728
#        88619
#        101045
#        109936
#        120939
#
# Disc length: 1734 seconds
#
# Revision: 0
# Processed by: cddbd v1.5.2PL0 Copyright (c) Steve Scherf et al.
# Submitted via: ExactAudioCopy v0.99pb5
#
DISCID=9606c40c
DTITLE=Loretta Lynn - Don't Come Home a Drinkin' (With Lovin' on Your 
DTITLE=Mind)
DYEAR=1967
DGENRE=Country
TTITLE0=Don't Come Home a Drinkin' (With Lovin' on Your Mind)
TTITLE1=I Really Don't Want to Know
TTITLE2=Tomorrow Never Comes
TTITLE3=There Goes My Everything
TTITLE4=The Shoe Goes on the Other Foot tonight
TTITLE5=Saint to Sinner
TTITLE6=The Devil Gets His Dues
TTITLE7=I Can't Keep Away from You
TTITLE8=I'm Living in Two Worlds
TTITLE9=Get What 'Cha Got and Go
TTITLE10=Making Plans
TTITLE11=I Got Caught
EXTD=
EXTT0=
EXTT1=
EXTT2=
EXTT3=
EXTT4=
EXTT5=
EXTT6=
EXTT7=
EXTT8=
EXTT9=
EXTT10=
EXTT11=
PLAYORDER=
